<?xml version="1.0" encoding="utf-8" ?>
<svg baseProfile="tiny" height="128px" version="1.2" width="128px" xmlns="http://www.w3.org/2000/svg" xmlns:ev="http://www.w3.org/2001/xml-events" xmlns:xlink="http://www.w3.org/1999/xlink"><defs /><polyline fill="none" points="37.0,124.0 36.0,125.0 32.0,125.0 31.0,126.0 29.0,126.0 28.0,127.0 22.0,127.0 39.0,127.0 39.0,124.0" stroke="black" stroke-width="2" /><polyline fill="none" points="10.0,124.0 10.0,125.0 11.0,125.0" stroke="black" stroke-width="2" /><polyline fill="none" points="113.0,117.0 112.0,118.0 105.0,118.0 107.0,120.0 108.0,120.0 109.0,121.0 110.0,121.0 111.0,122.0 115.0,122.0 117.0,120.0 117.0,118.0 116.0,118.0 115.0,117.0" stroke="black" stroke-width="2" /><polyline fill="none" points="21.0,114.0 20.0,115.0 20.0,118.0 21.0,118.0 22.0,119.0 23.0,118.0 26.0,118.0 27.0,117.0 27.0,116.0 25.0,116.0 24.0,117.0 21.0,117.0 20.0,116.0 20.0,115.0" stroke="black" stroke-width="2" /><polyline fill="none" points="62.0,110.0 61.0,111.0 62.0,110.0 63.0,110.0" stroke="black" stroke-width="2" /><polyline fill="none" points="51.0,110.0 52.0,110.0 53.0,111.0 53.0,110.0" stroke="black" stroke-width="2" /><polyline fill="none" points="26.0,110.0 28.0,110.0 29.0,111.0 28.0,110.0" stroke="black" stroke-width="2" /><polyline fill="none" points="5.0,110.0 4.0,111.0 4.0,114.0 9.0,114.0 10.0,113.0 5.0,113.0 4.0,112.0 4.0,111.0" stroke="black" stroke-width="2" /><polyline fill="none" points="100.0,109.0 99.0,110.0 101.0,112.0 102.0,112.0 102.0,110.0 101.0,109.0" stroke="black" stroke-width="2" /><polyline fill="none" points="55.0,109.0 55.0,110.0 56.0,109.0" stroke="black" stroke-width="2" /><polyline fill="none" points="71.0,108.0 69.0,110.0 70.0,110.0 71.0,109.0" stroke="black" stroke-width="2" /><polyline fill="none" points="66.0,106.0 66.0,107.0 65.0,108.0 66.0,107.0" stroke="black" stroke-width="2" /><polyline fill="none" points="78.0,105.0 78.0,107.0 79.0,108.0 79.0,105.0" stroke="black" stroke-width="2" /><polyline fill="none" points="71.0,104.0 71.0,105.0" stroke="black" stroke-width="2" /><polyline fill="none" points="42.0,102.0 42.0,103.0 43.0,102.0" stroke="black" stroke-width="2" /><polyline fill="none" points="59.0,101.0 57.0,103.0 58.0,104.0 59.0,104.0 59.0,103.0 60.0,102.0 60.0,101.0" stroke="black" stroke-width="2" /><polyline fill="none" points="56.0,100.0 55.0,101.0 54.0,101.0 54.0,102.0 53.0,103.0 54.0,103.0 55.0,102.0 55.0,101.0" stroke="black" stroke-width="2" /><polyline fill="none" points="83.0,98.0 83.0,99.0 84.0,100.0 84.0,101.0 83.0,102.0 82.0,102.0 81.0,103.0 81.0,104.0 82.0,104.0 83.0,105.0 82.0,106.0 82.0,107.0 84.0,107.0 84.0,106.0 82.0,104.0 83.0,103.0 83.0,102.0 84.0,101.0 84.0,100.0 83.0,99.0" stroke="black" stroke-width="2" /><polyline fill="none" points="74.0,98.0 75.0,99.0 75.0,100.0 76.0,100.0 75.0,99.0 75.0,98.0" stroke="black" stroke-width="2" /><polyline fill="none" points="111.0,97.0 108.0,100.0 108.0,101.0 110.0,101.0 112.0,99.0 112.0,97.0" stroke="black" stroke-width="2" /><polyline fill="none" points="66.0,97.0 66.0,98.0" stroke="black" stroke-width="2" /><polyline fill="none" points="81.0,96.0 80.0,97.0 80.0,99.0 81.0,98.0" stroke="black" stroke-width="2" /><polyline fill="none" points="47.0,96.0 44.0,99.0 43.0,98.0 42.0,98.0 42.0,99.0 44.0,99.0 45.0,100.0 45.0,101.0 46.0,102.0 46.0,103.0 45.0,104.0 44.0,104.0 43.0,105.0 43.0,106.0 44.0,107.0 45.0,107.0 47.0,109.0 47.0,108.0 48.0,107.0 49.0,108.0 50.0,108.0 51.0,107.0 50.0,106.0 50.0,105.0 49.0,104.0 50.0,103.0 50.0,102.0 51.0,101.0 51.0,100.0 50.0,99.0 50.0,96.0" stroke="black" stroke-width="2" /><polyline fill="none" points="47.0,92.0 48.0,93.0 48.0,94.0 50.0,94.0 49.0,93.0 50.0,92.0" stroke="black" stroke-width="2" /><polyline fill="none" points="57.0,88.0 58.0,88.0" stroke="black" stroke-width="2" /><polyline fill="none" points="48.0,88.0 47.0,89.0 46.0,89.0 47.0,89.0" stroke="black" stroke-width="2" /><polyline fill="none" points="120.0,85.0 118.0,87.0 117.0,87.0 116.0,88.0 116.0,90.0 117.0,89.0 118.0,89.0 120.0,87.0" stroke="black" stroke-width="2" /><polyline fill="none" points="70.0,85.0 72.0,87.0 72.0,86.0 71.0,85.0" stroke="black" stroke-width="2" /><polyline fill="none" points="114.0,84.0 112.0,86.0 112.0,87.0 111.0,88.0 112.0,88.0 113.0,87.0 112.0,86.0" stroke="black" stroke-width="2" /><polyline fill="none" points="61.0,84.0 64.0,84.0" stroke="black" stroke-width="2" /><polyline fill="none" points="47.0,84.0 46.0,85.0 50.0,85.0 52.0,87.0 51.0,88.0 50.0,88.0 51.0,88.0 52.0,87.0 53.0,87.0 55.0,85.0 50.0,85.0 49.0,84.0" stroke="black" stroke-width="2" /><polyline fill="none" points="80.0,82.0 79.0,83.0 77.0,83.0 81.0,83.0 82.0,82.0 83.0,82.0" stroke="black" stroke-width="2" /><polyline fill="none" points="71.0,81.0 70.0,82.0 68.0,82.0 67.0,83.0 66.0,83.0 69.0,83.0 70.0,82.0 72.0,82.0 72.0,81.0" stroke="black" stroke-width="2" /><polyline fill="none" points="48.0,80.0 48.0,81.0 52.0,81.0 50.0,81.0 49.0,80.0" stroke="black" stroke-width="2" /><polyline fill="none" points="53.0,76.0 54.0,76.0" stroke="black" stroke-width="2" /><polyline fill="none" points="75.0,75.0 74.0,76.0 79.0,76.0 80.0,75.0 79.0,76.0 76.0,76.0" stroke="black" stroke-width="2" /><polyline fill="none" points="49.0,75.0 48.0,76.0 47.0,76.0 47.0,77.0 49.0,77.0 48.0,76.0 49.0,75.0 50.0,75.0 51.0,76.0 50.0,75.0" stroke="black" stroke-width="2" /><polyline fill="none" points="108.0,70.0 107.0,71.0 106.0,71.0 105.0,72.0 106.0,72.0 107.0,71.0 108.0,71.0 109.0,70.0" stroke="black" stroke-width="2" /><polyline fill="none" points="117.0,66.0 117.0,67.0 115.0,69.0 117.0,67.0 118.0,67.0 119.0,66.0" stroke="black" stroke-width="2" /><polyline fill="none" points="114.0,66.0 113.0,67.0 112.0,67.0 111.0,68.0 111.0,69.0 112.0,69.0 112.0,68.0" stroke="black" stroke-width="2" /><polyline fill="none" points="83.0,51.0 83.0,73.0 83.0,64.0 85.0,62.0 85.0,61.0 83.0,59.0 83.0,54.0 84.0,53.0 85.0,53.0 85.0,51.0" stroke="black" stroke-width="2" /><polyline fill="none" points="77.0,49.0 77.0,71.0 78.0,71.0 78.0,63.0 79.0,62.0 80.0,63.0 80.0,70.0 81.0,71.0 81.0,72.0 81.0,63.0 80.0,62.0 81.0,61.0 81.0,51.0 79.0,49.0" stroke="black" stroke-width="2" /><polyline fill="none" points="69.0,49.0 69.0,70.0 70.0,71.0 74.0,71.0 74.0,50.0 75.0,49.0 73.0,49.0 73.0,69.0 72.0,70.0 70.0,68.0 70.0,49.0" stroke="black" stroke-width="2" /><polyline fill="none" points="53.0,49.0 53.0,71.0 57.0,71.0 59.0,69.0 59.0,61.0 57.0,59.0 59.0,57.0 59.0,56.0 58.0,55.0 58.0,49.0" stroke="black" stroke-width="2" /><polyline fill="none" points="63.0,48.0 62.0,49.0 61.0,49.0 61.0,57.0 62.0,58.0 62.0,59.0 64.0,61.0 64.0,62.0 65.0,63.0 65.0,68.0 64.0,69.0 63.0,69.0 62.0,68.0 62.0,64.0 61.0,65.0 61.0,70.0 62.0,71.0 65.0,71.0 67.0,69.0 67.0,63.0 66.0,62.0 66.0,61.0 64.0,59.0 64.0,58.0 62.0,56.0 62.0,51.0 63.0,50.0 64.0,50.0 65.0,51.0 65.0,55.0 67.0,55.0 67.0,51.0 66.0,50.0 66.0,49.0 65.0,48.0" stroke="black" stroke-width="2" /><polyline fill="none" points="112.0,45.0 112.0,46.0" stroke="black" stroke-width="2" /><polyline fill="none" points="62.0,42.0 63.0,42.0" stroke="black" stroke-width="2" /><polyline fill="none" points="58.0,40.0 58.0,41.0 59.0,40.0" stroke="black" stroke-width="2" /><polyline fill="none" points="117.0,38.0 118.0,38.0" stroke="black" stroke-width="2" /><polyline fill="none" points="61.0,38.0 62.0,38.0" stroke="black" stroke-width="2" /><polyline fill="none" points="69.0,37.0 69.0,39.0 70.0,40.0 72.0,40.0 72.0,39.0 70.0,37.0" stroke="black" stroke-width="2" /><polyline fill="none" points="71.0,32.0 74.0,35.0 74.0,36.0 73.0,37.0 74.0,38.0 74.0,40.0 75.0,41.0 74.0,42.0 75.0,43.0 76.0,43.0 75.0,42.0 75.0,41.0 76.0,40.0 77.0,40.0 78.0,41.0 78.0,43.0 79.0,44.0 84.0,44.0 84.0,43.0 85.0,42.0 86.0,43.0 85.0,42.0 85.0,40.0 83.0,38.0 83.0,37.0 81.0,35.0 79.0,35.0 78.0,34.0 77.0,34.0 76.0,33.0 74.0,33.0 73.0,32.0" stroke="black" stroke-width="2" /><polyline fill="none" points="73.0,27.0 73.0,28.0 75.0,28.0 75.0,27.0" stroke="black" stroke-width="2" /><polyline fill="none" points="52.0,26.0 51.0,27.0 51.0,28.0 55.0,28.0 56.0,27.0 56.0,26.0" stroke="black" stroke-width="2" /><polyline fill="none" points="74.0,22.0 76.0,22.0" stroke="black" stroke-width="2" /><polyline fill="none" points="53.0,21.0 52.0,22.0 50.0,22.0 49.0,23.0 51.0,23.0 52.0,22.0 54.0,22.0 55.0,21.0 56.0,21.0" stroke="black" stroke-width="2" /><polyline fill="none" points="39.0,0.0 35.0,4.0 27.0,4.0 25.0,2.0 24.0,2.0 24.0,3.0 25.0,4.0 23.0,6.0 20.0,6.0 19.0,5.0 17.0,7.0 17.0,8.0 16.0,9.0 15.0,9.0 13.0,11.0 12.0,11.0 11.0,12.0 11.0,13.0 7.0,17.0 6.0,17.0 5.0,18.0 4.0,18.0 3.0,19.0 2.0,19.0 1.0,20.0 0.0,19.0 0.0,65.0 1.0,65.0 2.0,66.0 3.0,66.0 4.0,67.0 6.0,67.0 7.0,66.0 9.0,66.0 10.0,67.0 9.0,68.0 12.0,68.0 13.0,69.0 19.0,69.0 20.0,70.0 21.0,70.0 22.0,71.0 21.0,72.0 11.0,72.0 10.0,73.0 9.0,72.0 6.0,72.0 5.0,71.0 2.0,71.0 1.0,72.0 0.0,71.0 0.0,73.0 3.0,73.0 4.0,74.0 8.0,74.0 9.0,75.0 13.0,75.0 14.0,76.0 25.0,76.0 26.0,77.0 25.0,78.0 24.0,78.0 23.0,79.0 15.0,79.0 14.0,80.0 9.0,80.0 8.0,81.0 7.0,80.0 6.0,80.0 5.0,79.0 3.0,79.0 2.0,80.0 0.0,80.0 0.0,82.0 4.0,82.0 5.0,83.0 10.0,83.0 11.0,84.0 14.0,84.0 15.0,83.0 17.0,83.0 18.0,82.0 21.0,82.0 22.0,81.0 24.0,81.0 25.0,80.0 28.0,80.0 29.0,79.0 30.0,80.0 31.0,79.0 32.0,79.0 33.0,78.0 34.0,79.0 34.0,80.0 33.0,81.0 32.0,81.0 33.0,81.0 34.0,82.0 32.0,84.0 31.0,84.0 30.0,83.0 29.0,83.0 30.0,83.0 31.0,84.0 31.0,86.0 30.0,87.0 25.0,87.0 24.0,88.0 21.0,88.0 21.0,89.0 20.0,90.0 19.0,90.0 18.0,89.0 15.0,89.0 14.0,88.0 9.0,88.0 7.0,86.0 4.0,86.0 3.0,85.0 0.0,85.0 1.0,85.0 2.0,86.0 1.0,87.0 0.0,87.0 1.0,87.0 2.0,88.0 5.0,88.0 6.0,89.0 9.0,89.0 11.0,91.0 9.0,93.0 10.0,94.0 10.0,95.0 11.0,95.0 12.0,94.0 12.0,93.0 13.0,92.0 14.0,93.0 15.0,93.0 16.0,92.0 17.0,92.0 18.0,91.0 24.0,91.0 25.0,90.0 26.0,90.0 27.0,91.0 32.0,91.0 33.0,90.0 36.0,90.0 38.0,92.0 37.0,93.0 36.0,93.0 35.0,92.0 34.0,93.0 28.0,93.0 27.0,94.0 23.0,94.0 22.0,95.0 21.0,95.0 20.0,96.0 18.0,96.0 18.0,97.0 19.0,98.0 19.0,99.0 21.0,101.0 22.0,101.0 23.0,102.0 23.0,103.0 24.0,104.0 25.0,104.0 26.0,105.0 27.0,105.0 28.0,106.0 29.0,106.0 30.0,107.0 31.0,107.0 33.0,109.0 34.0,109.0 35.0,110.0 35.0,111.0 33.0,113.0 32.0,113.0 32.0,114.0 30.0,116.0 30.0,117.0 29.0,118.0 30.0,119.0 28.0,121.0 27.0,121.0 30.0,121.0 31.0,122.0 30.0,123.0 26.0,123.0 32.0,123.0 33.0,122.0 38.0,122.0 39.0,121.0 39.0,120.0 40.0,119.0 40.0,118.0 41.0,117.0 44.0,117.0 45.0,116.0 50.0,116.0 51.0,117.0 71.0,117.0 72.0,116.0 82.0,116.0 83.0,115.0 87.0,115.0 88.0,116.0 88.0,117.0 91.0,117.0 92.0,118.0 91.0,119.0 90.0,119.0 89.0,120.0 88.0,120.0 88.0,124.0 90.0,124.0 91.0,123.0 92.0,123.0 93.0,122.0 94.0,122.0 95.0,121.0 97.0,121.0 99.0,119.0 100.0,119.0 101.0,118.0 97.0,114.0 97.0,109.0 100.0,106.0 105.0,106.0 106.0,107.0 108.0,107.0 109.0,108.0 110.0,108.0 111.0,109.0 112.0,109.0 113.0,110.0 116.0,107.0 117.0,107.0 122.0,102.0 121.0,103.0 119.0,103.0 115.0,107.0 113.0,107.0 112.0,108.0 109.0,108.0 108.0,107.0 108.0,106.0 110.0,104.0 111.0,104.0 113.0,102.0 111.0,104.0 110.0,104.0 109.0,105.0 108.0,105.0 107.0,106.0 106.0,106.0 105.0,105.0 107.0,103.0 105.0,103.0 103.0,105.0 102.0,105.0 101.0,104.0 103.0,102.0 103.0,100.0 104.0,99.0 105.0,99.0 105.0,97.0 107.0,95.0 108.0,95.0 107.0,95.0 106.0,96.0 104.0,96.0 103.0,95.0 103.0,94.0 105.0,92.0 105.0,91.0 106.0,90.0 106.0,88.0 107.0,87.0 107.0,86.0 108.0,85.0 108.0,83.0 109.0,82.0 108.0,82.0 107.0,81.0 107.0,76.0 108.0,75.0 109.0,75.0 107.0,75.0 106.0,76.0 105.0,76.0 104.0,77.0 103.0,77.0 101.0,79.0 98.0,79.0 97.0,80.0 96.0,80.0 95.0,81.0 93.0,81.0 92.0,82.0 91.0,82.0 90.0,83.0 89.0,83.0 88.0,84.0 88.0,110.0 84.0,114.0 80.0,114.0 79.0,115.0 47.0,115.0 46.0,114.0 43.0,114.0 42.0,113.0 41.0,113.0 39.0,111.0 39.0,109.0 38.0,108.0 38.0,103.0 39.0,102.0 39.0,93.0 37.0,91.0 38.0,90.0 42.0,90.0 41.0,90.0 40.0,89.0 40.0,88.0 36.0,88.0 35.0,87.0 36.0,86.0 37.0,86.0 38.0,85.0 41.0,85.0 42.0,86.0 43.0,85.0 43.0,84.0 42.0,83.0 41.0,83.0 40.0,82.0 40.0,81.0 39.0,80.0 39.0,52.0 41.0,50.0 42.0,51.0 42.0,73.0 44.0,73.0 45.0,72.0 47.0,72.0 47.0,68.0 48.0,67.0 49.0,67.0 50.0,68.0 50.0,72.0 51.0,72.0 51.0,64.0 50.0,63.0 50.0,51.0 49.0,50.0 49.0,49.0 48.0,49.0 47.0,48.0 48.0,47.0 49.0,47.0 50.0,46.0 50.0,45.0 52.0,43.0 54.0,43.0 54.0,40.0 55.0,39.0 56.0,39.0 56.0,38.0 55.0,37.0 55.0,34.0 57.0,32.0 53.0,32.0 52.0,33.0 50.0,33.0 49.0,34.0 48.0,34.0 47.0,35.0 46.0,35.0 45.0,34.0 47.0,32.0 48.0,32.0 48.0,31.0 47.0,30.0 47.0,29.0 45.0,27.0 45.0,15.0 46.0,14.0 46.0,13.0 47.0,12.0 49.0,12.0 50.0,11.0 53.0,11.0 54.0,10.0 56.0,10.0 57.0,9.0 60.0,9.0 61.0,8.0 67.0,8.0 68.0,9.0 72.0,9.0 73.0,10.0 75.0,10.0 76.0,11.0 78.0,11.0 79.0,12.0 80.0,12.0 81.0,13.0 81.0,14.0 82.0,15.0 82.0,27.0 81.0,28.0 81.0,29.0 79.0,31.0 80.0,31.0 82.0,33.0 83.0,33.0 85.0,35.0 85.0,36.0 87.0,38.0 87.0,40.0 88.0,41.0 88.0,73.0 89.0,74.0 88.0,75.0 88.0,76.0 86.0,78.0 82.0,78.0 81.0,79.0 78.0,79.0 76.0,81.0 75.0,81.0 78.0,81.0 79.0,80.0 81.0,80.0 82.0,79.0 84.0,79.0 85.0,78.0 88.0,78.0 89.0,77.0 91.0,77.0 91.0,76.0 94.0,73.0 97.0,73.0 99.0,71.0 101.0,71.0 102.0,70.0 104.0,70.0 106.0,68.0 108.0,68.0 114.0,62.0 114.0,61.0 115.0,60.0 115.0,59.0 116.0,58.0 115.0,59.0 115.0,60.0 113.0,62.0 112.0,62.0 111.0,61.0 111.0,60.0 112.0,59.0 112.0,58.0 113.0,57.0 113.0,56.0 114.0,55.0 114.0,53.0 115.0,52.0 115.0,49.0 113.0,49.0 113.0,51.0 112.0,52.0 111.0,51.0 111.0,48.0 111.0,51.0 110.0,52.0 109.0,51.0 109.0,49.0 108.0,48.0 108.0,47.0 107.0,46.0 107.0,45.0 106.0,44.0 106.0,43.0 105.0,42.0 104.0,42.0 103.0,41.0 103.0,40.0 102.0,39.0 101.0,40.0 100.0,40.0 99.0,39.0 94.0,39.0 93.0,40.0 92.0,39.0 92.0,40.0 91.0,41.0 90.0,41.0 89.0,40.0 90.0,39.0 90.0,38.0 92.0,36.0 93.0,36.0 94.0,35.0 94.0,34.0 95.0,33.0 95.0,32.0 94.0,31.0 95.0,30.0 96.0,30.0 97.0,29.0 100.0,29.0 101.0,30.0 99.0,32.0 99.0,33.0 98.0,34.0 100.0,34.0 100.0,33.0 103.0,30.0 104.0,30.0 105.0,29.0 106.0,30.0 107.0,29.0 110.0,29.0 113.0,32.0 113.0,33.0 114.0,34.0 113.0,35.0 114.0,35.0 115.0,36.0 114.0,35.0 115.0,34.0 118.0,34.0 119.0,35.0 121.0,35.0 122.0,36.0 122.0,37.0 123.0,38.0 122.0,39.0 122.0,44.0 121.0,45.0 122.0,45.0 123.0,44.0 125.0,46.0 124.0,47.0 125.0,47.0 127.0,49.0 126.0,50.0 127.0,49.0 127.0,22.0 126.0,22.0 124.0,20.0 123.0,20.0 122.0,19.0 117.0,19.0 115.0,17.0 115.0,18.0 114.0,19.0 111.0,16.0 110.0,16.0 108.0,14.0 107.0,14.0 106.0,13.0 103.0,13.0 102.0,12.0 102.0,11.0 101.0,11.0 100.0,10.0 99.0,10.0 98.0,9.0 97.0,9.0 96.0,8.0 93.0,8.0 92.0,7.0 92.0,6.0 91.0,6.0 90.0,5.0 89.0,5.0 86.0,2.0 83.0,2.0 82.0,1.0 81.0,1.0 80.0,0.0" stroke="black" stroke-width="2" /></svg>